<svg xmlns="http://www.w3.org/2000/svg" width="60" height="60" fill="none" viewBox="0 0 60 60" aria-hidden="true" class="custom-qojsmm-RankNumber ez496fw9"><path fill="white" d="M32.642 32.52c-1.04-2.24-2.88-3.76-5.76-4.48 2.64-.8 4.48-2.32 5.44-4.4.72-1.6.88-3.12.88-8.16 0-4.64-.24-6.24-1.04-8-1.76-3.76-5.76-5.84-12-5.84-6.16 0-10.32 2.08-12 5.84-.8 1.76-.96 3.36-.96 8 0 5.04.16 6.56.88 8.16.96 2.08 2.72 3.6 5.44 4.4-2.96.72-4.8 2.32-5.84 4.56-.88 1.84-1.12 3.6-1.12 10.48 0 7.04.24 8.72 1.12 10.56 1.76 3.92 5.92 6.24 12.48 6.24 6.56 0 10.8-2.32 12.48-6.24.88-1.84 1.12-3.52 1.12-10.56 0-6.88-.24-8.72-1.12-10.56Zm-17.6-22.08c.8-1.68 2.48-2.64 5.12-2.64s4.32.96 5.12 2.64c.48 1.04.56 1.92.56 6 0 4.32-.08 5.2-.56 6.16-.8 1.76-2.48 2.72-5.12 2.72-2.56 0-4.24-.96-5.12-2.72-.48-.96-.48-1.84-.48-6.16 0-4.08 0-4.96.48-6Zm10.72 40c-.88 2-2.8 3.04-5.6 3.04-2.72 0-4.64-.96-5.6-3.04-.4-1.04-.48-1.92-.48-7.92s0-6.88.48-7.92c.88-1.84 2.72-3.04 5.6-3.04 2.88 0 4.72 1.2 5.6 3.04.48 1.04.56 1.92.56 8 0 5.92-.08 6.72-.56 7.84Z"></path></svg>