<svg xmlns="http://www.w3.org/2000/svg" width="60" height="60" fill="none" viewBox="0 0 60 60" aria-hidden="true" class="custom-qojsmm-RankNumber ez496fw9"><path fill="white" d="M7.52 59h25.6v-6.64H19.04c3.2-6.56 6.4-12.96 9.44-19.36 3.36-6.24 4.56-9.92 4.56-16.24 0-4.88-.32-6.8-1.2-8.8C30 3.88 26.24 1.64 20.4 1.64c-5.52 0-9.52 1.92-11.28 6.08C8 10.2 7.6 12.68 7.6 20.2h6.96c0-6 .16-7.6.72-8.96.88-1.84 2.4-2.8 4.96-2.8 2.4 0 4.08.88 4.8 2.64.4.96.64 1.84.64 6.32 0 5.52-1.04 7.6-4.48 14.48L7.52 58.76V59Z"></path></svg>