<svg width="152" height="152" viewBox="0 0 152 152" fill="none" xmlns="http://www.w3.org/2000/svg" aria-hidden="true" class="custom-qojsmm-RankNumber ez496fw9"><g clip-path="url(#clip0_793_556858)"><path d="M17.2284 149.773H35.4684V6.69026H4.66305L1.62305 23.9169H17.2284V149.773Z" fill="white"></path><path d="M78.6296 152.002C93.4243 152.002 103.76 146.125 109.232 133.762C113.083 125.25 114.096 115.928 114.096 78.2316C114.096 40.5356 113.083 31.2129 109.232 22.7009C103.76 10.3383 93.4243 4.46094 78.6296 4.46094C63.6323 4.46094 53.499 10.3383 48.027 22.7009C44.379 31.2129 43.163 40.5356 43.163 78.2316C43.163 115.928 44.379 125.25 48.027 133.762C53.499 146.125 63.6323 152.002 78.6296 152.002ZM78.6296 134.573C71.5363 134.573 67.0777 131.533 64.6457 126.061C62.619 120.994 62.011 115.117 62.011 78.2316C62.011 41.3463 62.619 35.2663 64.6457 30.1996C67.0777 24.7276 71.5363 21.6876 78.6296 21.6876C85.9257 21.6876 90.1816 24.7276 92.6136 30.1996C94.843 35.2663 95.2483 41.3463 95.2483 78.2316C95.2483 115.117 94.843 120.994 92.6136 126.061C90.1816 131.533 85.9257 134.573 78.6296 134.573Z" fill="white"></path></g><defs><clipPath id="clip0_793_556858"><rect width="152" height="152" fill="white"></rect></clipPath></defs></svg>