<svg xmlns="http://www.w3.org/2000/svg" width="60" height="60" fill="none" viewBox="0 0 60 60" aria-hidden="true" class="custom-qojsmm-RankNumber ez496fw9"><path fill="white" d="M32.122 33.08c-.96-2.24-2.88-3.6-5.84-4.32 2.88-.72 4.56-2.16 5.44-4.24.64-1.44.88-2.56.88-7.76 0-6.16-.24-7.52-1.04-9.28-1.6-3.6-5.2-5.84-11.28-5.84-5.52 0-9.76 1.68-11.76 6.08-.96 2.32-1.2 4.72-1.2 11.6h6.88c0-5.92.16-7.28.64-8.4.8-1.84 2.4-2.8 5.04-2.8 2.56 0 4.16.88 4.96 2.64.48.96.56 1.84.56 6.24 0 4.16-.08 4.8-.56 5.84-1.04 2.08-3.2 2.88-6.96 2.88h-1.36v6.48h1.28c3.84 0 6.24.64 7.36 2.88.48 1.04.64 1.84.64 7.2 0 6-.08 7.04-.56 8.08-.88 1.92-2.64 2.8-5.36 2.8-2.8 0-4.48-1.04-5.36-2.88-.56-1.36-.72-2.8-.72-9.52h-6.88c0 8.32.32 10.64 1.44 13.04 1.84 4.4 6.24 6.08 11.68 6.08 6.48 0 10.24-2.16 11.92-6.08.96-1.92 1.2-3.44 1.2-11.28 0-6.48-.24-7.76-1.04-9.44Z"></path></svg>