<svg xmlns="http://www.w3.org/2000/svg" width="60" height="60" fill="none" viewBox="0 0 60 60" aria-hidden="true" class="custom-qojsmm-RankNumber ez496fw9"><path fill="white" d="M32.078 9c-2.16-4.88-6.24-7.36-12.32-7.36-5.92 0-10.08 2.16-12.08 6.48-1.04 2.32-1.28 3.92-1.28 12.48 0 8.48.24 10.08 1.12 12 1.6 3.68 5.2 5.68 9.92 5.68 4.32 0 7.52-1.6 9.44-4.24 0 11.6-.32 13.6-1.2 15.6-1.04 2.32-2.88 3.68-5.76 3.68-1.92 0-3.36-.56-4.4-1.6-.96-1.2-1.44-2.8-1.68-8.72h-6.88c.24 7.6 1.04 11.12 3.44 13.52 2.24 2.24 5.36 3.28 9.44 3.28 6.16 0 10.08-2.64 12.16-7.28 1.52-3.36 1.92-6.8 1.92-22.08 0-15.36-.4-18.32-1.84-21.44Zm-6.64 19.76c-.88 1.92-2.72 3.36-5.68 3.36-2.72 0-4.48-1.12-5.44-3.2-.48-1.12-.64-2-.64-8.72 0-6.8.16-7.84.72-8.96.88-2.08 2.72-3.12 5.44-3.12 2.8 0 4.72 1.12 5.6 3.28.56 1.12.64 2.24.64 8.72s-.08 7.28-.64 8.64Z"></path></svg>