<svg xmlns="http://www.w3.org/2000/svg" width="60" height="60" fill="none" viewBox="0 0 60 60" aria-hidden="true" class="custom-qojsmm-RankNumber ez496fw9"><path fill="white" d="M19.718 59.883c6 0 9.84-2.08 11.84-6.16.96-2.08 1.2-4 1.2-12.56 0-8.8-.32-10.64-1.28-12.8-1.84-4.08-5.76-6.24-11.44-6.24-1.36 0-2.8.16-4.24.4l1.36-13.28h13.44l1.12-6.72h-20.88l-2.8 26.88c2.64-.56 5.84-.96 8.32-.96 4.24 0 7.04 1.12 8.32 3.76.56 1.44.72 2.88.72 9.36 0 6.56-.08 7.52-.56 8.64-.96 1.92-2.64 2.96-5.28 2.96-2.56 0-4.32-.96-5.12-2.88-.56-1.28-.72-2.64-.72-8.96h-6.96c0 7.68.32 10.24 1.36 12.4 1.84 4.24 5.92 6.16 11.6 6.16Z"></path></svg>