<svg xmlns="http://www.w3.org/2000/svg" width="60" height="60" fill="none" viewBox="0 0 60 60" aria-hidden="true" class="custom-qojsmm-RankNumber ez496fw9"><path fill="white" d="M32.28 28.84c-1.6-3.68-5.2-5.6-9.92-5.6-4.32 0-7.52 1.6-9.44 4.24 0-11.68.32-13.68 1.12-15.68 1.12-2.32 2.96-3.68 5.84-3.68 1.92 0 3.36.64 4.32 1.68 1.04 1.12 1.52 2.72 1.76 8.64h6.88c-.24-7.6-1.04-11.12-3.52-13.52-2.16-2.16-5.28-3.28-9.44-3.28-6.08 0-10.08 2.64-12.16 7.28C6.2 12.36 5.8 15.72 5.8 31c0 15.36.48 18.32 1.92 21.44 2.16 4.96 6.24 7.44 12.32 7.44 5.92 0 10.08-2.24 12.08-6.48 1.04-2.4 1.28-4 1.28-12.48 0-8.56-.32-10.16-1.12-12.08ZM25.4 50.2c-.96 2.08-2.72 3.2-5.44 3.2-2.88 0-4.8-1.2-5.68-3.36-.48-1.12-.56-2.24-.56-8.72 0-6.4.08-7.28.64-8.56.8-2 2.72-3.44 5.68-3.44 2.72 0 4.48 1.12 5.44 3.2.48 1.12.64 2.08.64 8.72 0 6.88-.16 7.84-.72 8.96Z"></path></svg>